<?xml version="1.0" encoding="UTF-8" standalone="no"?>
<svg
   x="0px"
   y="0px"
   viewBox="0 0 32 32"
   version="1.1"
   id="svg826"
   sodipodi:docname="lime-template.svg"
   inkscape:version="1.1.1 (c3084ef, 2021-09-22)"
   inkscape:export-filename="lime-export.png"
   inkscape:export-xdpi="1920"
   inkscape:export-ydpi="1920"
   xmlns:inkscape="http://www.inkscape.org/namespaces/inkscape"
   xmlns:sodipodi="http://sodipodi.sourceforge.net/DTD/sodipodi-0.dtd"
   xmlns="http://www.w3.org/2000/svg"
   xmlns:svg="http://www.w3.org/2000/svg">
  <defs
     id="defs830" />
  <sodipodi:namedview
     id="namedview828"
     pagecolor="#ffffff"
     bordercolor="#666666"
     borderopacity="1.0"
     inkscape:pageshadow="2"
     inkscape:pageopacity="0.0"
     inkscape:pagecheckerboard="0"
     showgrid="false"
     inkscape:zoom="24.483572"
     inkscape:cx="16.010736"
     inkscape:cy="15.541033"
     inkscape:window-width="1843"
     inkscape:window-height="1107"
     inkscape:window-x="2245"
     inkscape:window-y="40"
     inkscape:window-maximized="0"
     inkscape:current-layer="svg826"
     fit-margin-top="4"
     fit-margin-left="4"
     fit-margin-right="4"
     fit-margin-bottom="4"
     lock-margins="true" />
  <path
     d="M 13,4 C 10.417969,4 8.121094,5.4375 6.53125,7.625 4.941406,9.8125 4,12.765625 4,16 4,19.234375 4.941406,22.1875 6.53125,24.375 8.121094,26.5625 10.417969,28 13,28 21.230469,28 25.617188,23.292969 26.6875,18.34375 27.441406,17.800781 28,16.996094 28,16 28,15.003906 27.441406,14.199219 26.6875,13.65625 25.558594,8.582031 20.3125,4 13,4 Z m 0,2 c 1.835938,0 3.539063,1.015625 4.84375,2.8125 C 19.148438,10.609375 20,13.160156 20,16 20,18.839844 19.148438,21.390625 17.84375,23.1875 16.539063,24.984375 14.835938,26 13,26 11.164063,26 9.460938,24.984375 8.15625,23.1875 6.851563,21.390625 6,18.839844 6,16 6,13.160156 6.851563,10.609375 8.15625,8.8125 9.460938,7.015625 11.164063,6 13,6 Z m 6.375,1.53125 c 3.039063,1.609375 4.992188,4.257813 5.46875,6.84375 l 0.09375,0.5 0.46875,0.21875 C 25.753906,15.253906 26,15.589844 26,16 c 0,0.410156 -0.246094,0.746094 -0.59375,0.90625 l -0.46875,0.21875 -0.09375,0.5 c -0.53125,2.894531 -2.277344,5.734375 -5.78125,7.25 0.136719,-0.164062 0.277344,-0.324219 0.40625,-0.5 C 21.058594,22.1875 22,19.234375 22,16 22,12.765625 21.058594,9.8125 19.46875,7.625 19.441406,7.589844 19.402344,7.566406 19.375,7.53125 Z M 13,8 c -0.714844,0 -1.386719,0.257813 -2,0.6875 l 2.03125,4.78125 2.0625,-4.75 C 14.460938,8.253906 13.742188,8 13,8 Z M 9.5,10.28125 C 8.714844,11.511719 8.175781,13.160156 8.03125,15 H 11.5 Z M 16.5625,10.375 14.53125,15 h 3.4375 C 17.828125,13.203125 17.320313,11.597656 16.5625,10.375 Z M 8.03125,17 c 0.140625,1.796875 0.648438,3.402344 1.40625,4.625 L 11.46875,17 Z m 6.46875,0 2,4.71875 C 17.285156,20.488281 17.824219,18.839844 17.96875,17 Z m -1.53125,1.53125 -2.0625,4.75 C 11.539063,23.746094 12.257813,24 13,24 c 0.714844,0 1.386719,-0.257812 2,-0.6875 z"
     id="path824"
     style="fill:#8bc34a;fill-opacity:1" />
</svg>
